<svg xmlns="http://www.w3.org/2000/svg" width="888" height="795" fill="none">
  <defs/>
  <g clip-path="url(#clip0)">
    <path fill="url(#paint0_linear)" d="M298 767L0 795V94l298-28v701z"/>
    <path fill="url(#paint1_linear)" d="M298 767l298 28V94L298 66v701z"/>
    <path fill="url(#paint2_linear)" d="M888 767l-292 28V94l292-28v701z"/>
    <path fill="#F5F5F5" d="M299 747L9 774V101l290-27v673z"/>
    <path fill="#fff" d="M299 747l289 27V101L299 74v673z"/>
    <path fill="#F5F5F5" d="M878 747l-290 27V101l290-27v673z"/>
    <path fill="#66A1EE" d="M299 135l-220 8v101h187v-36l33-1 50 15v-71l-50-16zM299 701L52 725v-90l247-24v90zM272 422L25 446v-90l247-24v90zM552 632H444v82h108v-82zM517 439H409v82h108v-82zM561 182H453v82h108v-82zM837 676l-168 14V581l168-14v109zM817 292l-168 14V197l168-14v109z" opacity=".3"/>
    <path fill="url(#paint3_linear)" d="M802 89c0 40-68 150-68 150s-69-110-69-150c0-39 31-70 69-70 37 0 68 31 68 70z"/>
    <path fill="url(#paint4_linear)" d="M734 106c11 0 20-10 20-22 0-11-9-21-20-21-12 0-21 10-21 21 0 12 9 22 21 22z"/>
    <path fill="#66A1EE" d="M797 90c0 34-63 133-63 133s-64-99-64-133a63 63 0 01127 0z"/>
    <path fill="#fff" d="M734 104a19 19 0 100-38 19 19 0 000 38z"/>
    <path fill="url(#paint5_linear)" d="M225 533c0 39-70 151-70 151S85 572 85 533c0-40 31-72 70-72s70 32 70 72z"/>
    <path fill="url(#paint6_linear)" d="M155 549c12 0 21-9 21-21s-9-22-21-22-21 10-21 22 9 21 21 21z"/>
    <path fill="#66A1EE" d="M218 532c0 35-63 134-63 134s-63-99-63-134a63 63 0 11126 0z"/>
    <path fill="#fff" d="M155 547a19 19 0 100-38 19 19 0 000 38z"/>
    <path fill="#66A1EE" d="M561 537c0 35-63 134-63 134s-63-99-63-134a63 63 0 11126 0z"/>
    <path fill="#fff" d="M498 552a19 19 0 100-38 19 19 0 000 38z"/>
    <path fill="#66A1EE" d="M809 497c0 35-63 134-63 134s-63-99-63-134a63 63 0 01126 0z"/>
    <path fill="#fff" d="M746 512a19 19 0 100-38 19 19 0 000 38z"/>
    <path fill="#66A1EE" d="M250 63c0 35-63 134-63 134s-63-99-63-134a63 63 0 11126 0z"/>
    <path fill="#fff" d="M187 78a19 19 0 100-38 19 19 0 000 38z"/>
  </g>
  <defs>
    <linearGradient id="paint0_linear" x1="148.9" x2="148.9" y1="794.7" y2="65.6" gradientUnits="userSpaceOnUse">
      <stop stop-color="gray" stop-opacity=".3"/>
      <stop offset=".5" stop-color="gray" stop-opacity=".1"/>
      <stop offset="1" stop-color="gray" stop-opacity=".1"/>
    </linearGradient>
    <linearGradient id="paint1_linear" x1="133335" x2="133335" y1="579453" y2="47916.9" gradientUnits="userSpaceOnUse">
      <stop stop-color="gray" stop-opacity=".3"/>
      <stop offset=".5" stop-color="gray" stop-opacity=".1"/>
      <stop offset="1" stop-color="gray" stop-opacity=".1"/>
    </linearGradient>
    <linearGradient id="paint2_linear" x1="217122" x2="217122" y1="579453" y2="47916.9" gradientUnits="userSpaceOnUse">
      <stop stop-color="gray" stop-opacity=".3"/>
      <stop offset=".5" stop-color="gray" stop-opacity=".1"/>
      <stop offset="1" stop-color="gray" stop-opacity=".1"/>
    </linearGradient>
    <linearGradient id="paint3_linear" x1="733.7" x2="733.7" y1="239.3" y2="18.6" gradientUnits="userSpaceOnUse">
      <stop stop-color="#B3B3B3" stop-opacity=".3"/>
      <stop offset=".5" stop-color="#B3B3B3" stop-opacity=".1"/>
      <stop offset="1" stop-color="#B3B3B3" stop-opacity=".1"/>
    </linearGradient>
    <linearGradient id="paint4_linear" x1="733.7" x2="733.7" y1="105.9" y2="63" gradientUnits="userSpaceOnUse">
      <stop stop-opacity=".1"/>
      <stop offset=".6" stop-opacity=".1"/>
      <stop offset="1" stop-opacity="0"/>
    </linearGradient>
    <linearGradient id="paint5_linear" x1="43901.1" x2="43901.1" y1="164130" y2="114717" gradientUnits="userSpaceOnUse">
      <stop stop-color="#B3B3B3" stop-opacity=".3"/>
      <stop offset=".5" stop-color="#B3B3B3" stop-opacity=".1"/>
      <stop offset="1" stop-color="#B3B3B3" stop-opacity=".1"/>
    </linearGradient>
    <linearGradient id="paint6_linear" x1="154.9" x2="154.9" y1="549.3" y2="506.1" gradientUnits="userSpaceOnUse">
      <stop offset="0" stop-opacity=".1"/>
      <stop offset=".6" stop-opacity=".1"/>
      <stop offset="1" stop-opacity=".1"/>
    </linearGradient>
    <clipPath id="clip0">
      <path fill="#fff" d="M0 0h888v795H0z"/>
    </clipPath>
  </defs>
</svg>